 Temperature versus pressure: test case with sharp step between isothermal layers
.
. 
.
. 
#     p[hPa]    T[K]  dT[K]
25
         0.001  250.   0.
         0.01   250.   0.
         0.10   250.   0.
         1.00   250.   0.
        10.     250.   0.
       100.     250.   0.
      1000.     250.   0.
      2000.     250.   0.
      3000.     250.   0.
      4000.     250.   0.
      5000.     250.   0.
      6000.     300.   0.
      7000.     300.   0.
      8000.     300.   0.
      9000.     300.   0.
     10000.     300.   0.
     20000.     300.   0.
     30000.     300.   0.
     40000.     300.   0.
     50000.     300.   0.
     60000.     300.   0.
     70000.     300.   0.
     80000.     300.   0.
     90000.     300.   0.
    100000.     300.   0.































